<svg xmlns="http://www.w3.org/2000/svg" shape-rendering="geometricPrecision" text-rendering="geometricPrecision" image-rendering="optimizeQuality" fill-rule="evenodd" clip-rule="evenodd" viewBox="0 0 435 512.221"><path fill="#0E1C2A" fill-rule="nonzero" d="M397.263 0C418.028 0 435 16.975 435 37.739v436.678c0 10.377-4.25 19.816-11.086 26.652-6.837 6.836-16.275 11.085-26.651 11.085-116.243 0-232.484.067-348.725.067-20.767 0-37.739-16.971-37.739-37.739V37.798C10.799 17.021 27.761.059 48.538.059 164.778.059 281.022 0 397.263 0z"/><path fill="#E2E0DF" d="M112.422 9.864h284.841c15.142 0 27.532 12.413 27.532 27.535v438.552c0 15.121-12.413 27.532-27.532 27.532H112.422V9.864z"/><path fill="#FCFBFC" d="M410.36 301.188v159.399c0 15.103-12.431 27.534-27.534 27.534H112.422V25.226h270.404c15.107 0 27.534 12.431 27.534 27.534v248.428z"/><path fill="#DB7174" d="M21.004 37.798v436.684c0 15.144 12.408 27.534 27.534 27.534h53.69V10.264h-53.69c-15.144 0-27.534 12.39-27.534 27.534z"/><path fill="#D24F54" d="M100.527 490.982l1.701-480.718h-53.69c-7.811 0-14.889 3.296-19.912 8.567v444.618c0 15.144 12.408 27.533 27.533 27.533h44.368z"/><path fill="#0E1C2A" fill-rule="nonzero" d="M51.054 68.69H6.804a6.804 6.804 0 010-13.608h44.25c2.649-6.222 8.818-10.586 16.008-10.586 9.605 0 17.391 7.785 17.391 17.39 0 9.604-7.786 17.39-17.391 17.39-7.19 0-13.359-4.364-16.008-10.586zm0 377.475c2.649 6.223 8.818 10.587 16.008 10.587 9.605 0 17.391-7.786 17.391-17.39 0-9.605-7.786-17.391-17.391-17.391-7.19 0-13.359 4.364-16.008 10.587H6.804a6.804 6.804 0 100 13.607h44.25zm0-75.495c2.649 6.223 8.819 10.586 16.008 10.586 9.605 0 17.391-7.786 17.391-17.39 0-9.604-7.786-17.391-17.391-17.391-7.19 0-13.361 4.364-16.008 10.588H6.804a6.804 6.804 0 100 13.607h44.25zm0-75.495c2.649 6.223 8.818 10.587 16.008 10.587 9.605 0 17.391-7.786 17.391-17.391 0-9.604-7.786-17.39-17.391-17.39-7.19 0-13.359 4.364-16.008 10.587H6.804a6.803 6.803 0 100 13.607h44.25zm0-75.496c2.649 6.223 8.818 10.587 16.008 10.587 9.605 0 17.391-7.786 17.391-17.39 0-9.604-7.786-17.391-17.391-17.391-7.19 0-13.359 4.365-16.008 10.587H6.804a6.804 6.804 0 000 13.607h44.25zm0-75.494c2.649 6.222 8.818 10.586 16.008 10.586 9.605 0 17.391-7.786 17.391-17.39 0-9.605-7.786-17.391-17.391-17.391-7.19 0-13.359 4.365-16.008 10.587H6.804a6.804 6.804 0 100 13.608h44.25z"/><path fill="#1C262E" fill-rule="nonzero" d="M168.586 297.698a7.654 7.654 0 010-15.307h185.611a7.654 7.654 0 010 15.307H168.586zm0-196.349a7.654 7.654 0 010-15.307h185.611a7.654 7.654 0 010 15.307H168.586zm0 65.449a7.653 7.653 0 110-15.306h185.611a7.653 7.653 0 010 15.306H168.586zm0 65.85a7.653 7.653 0 110-15.306h185.611a7.653 7.653 0 010 15.306H168.586zm75.744 194.657a7.654 7.654 0 010-15.307h103.062a7.654 7.654 0 010 15.307H244.33zm-75.744-64.804a7.654 7.654 0 010-15.307h178.806a7.654 7.654 0 010 15.307H168.586z"/></svg>